<?xml version="1.0" standalone="no"?><!DOCTYPE svg PUBLIC "-//W3C//DTD SVG 1.1//EN" "http://www.w3.org/Graphics/SVG/1.1/DTD/svg11.dtd"><svg t="1599057915385" class="icon" viewBox="0 0 1024 1024" version="1.1" xmlns="http://www.w3.org/2000/svg" p-id="1033" xmlns:xlink="http://www.w3.org/1999/xlink" width="200" height="200"><defs><style type="text/css"></style></defs><path d="M170.666667 128a42.666667 42.666667 0 0 1 42.368 37.674667L213.333333 170.666667v96.853333a388.309333 388.309333 0 0 1 682.24 195.925333 42.666667 42.666667 0 1 1-84.48 11.776A302.933333 302.933333 0 0 0 264.106667 341.333333L384 341.333333a42.666667 42.666667 0 0 1 42.368 37.674667L426.666667 384a42.666667 42.666667 0 0 1-37.674667 42.368L384 426.666667H170.666667a42.666667 42.666667 0 0 1-42.368-37.674667L128 384V170.666667a42.666667 42.666667 0 0 1 42.666667-42.666667zM212.906667 548.778667A302.933333 302.933333 0 0 0 759.893333 682.666667H640a42.666667 42.666667 0 0 1-42.368-37.674667L597.333333 640a42.666667 42.666667 0 0 1 37.674667-42.368L640 597.333333h213.333333a42.666667 42.666667 0 0 1 42.368 37.674667L896 640v213.333333a42.666667 42.666667 0 0 1-85.034667 4.992L810.666667 853.333333v-96.938666a388.309333 388.309333 0 0 1-682.24-195.84 42.666667 42.666667 0 1 1 84.48-11.776z" p-id="1034"></path></svg>