<?xml version="1.0" standalone="no"?><!DOCTYPE svg PUBLIC "-//W3C//DTD SVG 1.1//EN" "http://www.w3.org/Graphics/SVG/1.1/DTD/svg11.dtd"><svg t="1599057681096" class="icon" viewBox="0 0 1175 1024" version="1.1" xmlns="http://www.w3.org/2000/svg" p-id="825" xmlns:xlink="http://www.w3.org/1999/xlink" width="229.4921875" height="200"><defs><style type="text/css"></style></defs><path d="M1115.971131 1024H0V59.945469a60.76664 60.76664 0 0 1 120.712109 0V903.287891h995.259022a60.76664 60.76664 0 0 1 0 120.712109z" p-id="826"></path><path d="M257.847634 775.185245a59.124298 59.124298 0 0 1-26.277466-6.569367 59.945469 59.945469 0 0 1-27.098636-82.117081l158.485966-320.256616 283.303929 203.650361 344.891741-466.42502a58.303128 58.303128 0 0 1 82.117081-12.317562 59.124298 59.124298 0 0 1 13.138733 82.117081L672.538893 739.053729 410.585405 547.72093 312.044908 739.053729a60.76664 60.76664 0 0 1-54.197274 36.131516z" p-id="827"></path></svg>